# xmcd CD database file
#
# Track frame offsets:
#	150
#	30399
#	54120
#	75729
#	97135
#	124550
#	144301
#	174726
#	203354
#	228309
#	258857
#
# Disc length: 3869 seconds
#
# Revision: 0
# Processed by: cddbd v1.5.2PL0 Copyright (c) Steve Scherf et al.
# Submitted via: CDex 1.70beta2
#
DISCID=800f1b0b
DTITLE=Schiller - OPUS CD2 Klangwelten (Exclusive Tour Edition) Live aus dem Gewandhaus Leipzig
DYEAR=2013
DGENRE=New Age
TTITLE0=Tiefblau
TTITLE1=Salton Sea
TTITLE2=Polarstern
TTITLE3=Leidenschaft
TTITLE4=Sommerregen
TTITLE5=La Mer
TTITLE6=Sehnsucht (Instrumental)
TTITLE7=I Miss You
TTITLE8=Atemlos
TTITLE9=Denn Wer Liebt
TTITLE10=Das Glockenspiel
EXTD=YEAR: 2013
EXTT0=
EXTT1=
EXTT2=
EXTT3=
EXTT4=
EXTT5=
EXTT6=
EXTT7=
EXTT8=
EXTT9=
EXTT10=
PLAYORDER=
